<svg xmlns="http://www.w3.org/2000/svg" width="24.999" height="25.003" viewBox="0 0 24.999 25.003">
    <path d="M1749.894 9434.86a5.811 5.811 0 0 0-5.058-.768h-.01a.638.638 0 0 1-.784-.455.653.653 0 0 1 .445-.8 3.249 3.249 0 1 0 4.321-4.833 6.982 6.982 0 0 1 3.708-3.256 6.636 6.636 0 0 1-3.509-3.7 7.81 7.81 0 0 1 .457-5.086 7.718 7.718 0 0 1-4.648.412 5.722 5.722 0 0 1-3.888-3.171 6.34 6.34 0 0 1-.166-.344 7.757 7.757 0 0 1-2.6 3.342c-1.605 1.132-3.867.715-5.548.127a8.843 8.843 0 0 1 .457 3.209.642.642 0 1 1-1.281-.081c0-.03.166-3.158-1.48-4.165a.664.664 0 0 1-.223-.89.638.638 0 0 1 .871-.229c1.2.693 4.691 2.219 6.474.964a7.408 7.408 0 0 0 2.678-4.563.641.641 0 0 1 1.271 0c.024.156.594 3.86 3.708 4.539a6.521 6.521 0 0 0 5.505-1.3.638.638 0 0 1 .848 0 .666.666 0 0 1 .116.853c-.021.033-2.162 3.387-1.328 6 .819 2.563 4.253 3.492 4.288 3.5a.653.653 0 0 1-.007 1.26c-.036 0-3.62.959-4.523 3.109a5.659 5.659 0 0 0 .083 3.535 11.362 11.362 0 0 0 .786 1.986.663.663 0 0 1-.151.813.636.636 0 0 1-.414.154.651.651 0 0 1-.398-.162zm-18.327-6.678 1.307-1.271.147-4.2 1.6-1.953 2.725-.9.523-.068-.45.482 4.426 4.123a2.2 2.2 0 0 1-1.2.447 2.089 2.089 0 0 1-1.537-.767l-1.165-1.163-.924.926.8.8a4.958 4.958 0 0 1-.367 4.686l1.125.663a6.469 6.469 0 0 0 .931-4.054 2.83 2.83 0 0 0 .859.2l3.611 3.871-2.015 1.843-2.709.81-1.6 1.529zm11.647-.648 2.844-2.652 1.028.891.054 1.07-2.373 2.356zm-1.532-1.674a4.353 4.353 0 0 0 1.409-1.028l.41-.476-.538-.5 1.556-1.456 1.122 1.11-3.289 3.069zm-.954-4.113 1.9-1.852 1.307 1.29-1.9 1.781zm-2.536-2.4 1.182-1.182.921-.149.35.093.978.98-1.811 1.766z" transform="translate(-1730 -9410)" style="fill:#7a57ff"/>
</svg>
