<svg xmlns="http://www.w3.org/2000/svg" width="22" height="25" viewBox="0 0 22 25">
    <path d="M20.5 15.3v-5.161c0-4.082-2.1-5.931-2.1-5.931A13.368 13.368 0 0 0 11 0a13.366 13.366 0 0 0-7.4 4.209s-2.1 1.848-2.1 5.93V15.3s-.348 2.9-1.5 3.414c0 0 1.843 5.973 7.631 6.286a20.8 20.8 0 0 1-1.5-9.272s-3.424-1.366-3.05-6.371A7.8 7.8 0 0 1 9.387 12.5v6.272L11 20.278l1.613-1.507V12.5a7.8 7.8 0 0 1 6.306-3.143c.374 5-3.053 6.371-3.053 6.371A20.8 20.8 0 0 1 14.369 25C20.157 24.687 22 18.714 22 18.714c-1.152-.514-1.5-3.414-1.5-3.414" style="fill:#7a57ff"/>
</svg>
