<svg xmlns="http://www.w3.org/2000/svg" xmlns:xlink="http://www.w3.org/1999/xlink" width="306" height="178" viewBox="0 0 306 178">
    <defs>
        <linearGradient id="f6ntznts4c" x1=".012" y1=".018" x2=".932" y2=".975" gradientUnits="objectBoundingBox">
            <stop offset="0" stop-color="#3e434b"/>
            <stop offset="1" stop-color="#151a21"/>
        </linearGradient>
        <linearGradient id="oo8o74cycd" x1=".5" x2=".5" y2="1" gradientUnits="objectBoundingBox">
            <stop offset="0"/>
            <stop offset="1" stop-opacity="0"/>
        </linearGradient>
        <linearGradient id="srhmt78p5e" x1=".5" x2=".5" y2="1" gradientUnits="objectBoundingBox">
            <stop offset="0" stop-color="#393e46"/>
            <stop offset="1" stop-color="#0d0f11"/>
        </linearGradient>
        <linearGradient id="2axtrvz5ga" y1=".5" x2="1" y2=".5" gradientUnits="objectBoundingBox">
            <stop offset="0" stop-color="#3e3d3d"/>
            <stop offset=".021" stop-color="#1d1d1d"/>
            <stop offset=".1" stop-color="#f5f5f5"/>
            <stop offset=".326" stop-color="#b7babf"/>
            <stop offset="1" stop-color="#b7babf"/>
        </linearGradient>
        <linearGradient id="vxf4mo1aqb" y1=".5" x2="1" y2=".5" gradientUnits="objectBoundingBox">
            <stop offset="0" stop-color="#1d1e20"/>
            <stop offset=".127" stop-color="#b3b6bc"/>
            <stop offset=".393" stop-color="#9da0a5"/>
            <stop offset="1" stop-color="#9da0a5"/>
        </linearGradient>
        <linearGradient id="hu74qplcyf" x1="1" x2="0" xlink:href="#2axtrvz5ga"/>
        <linearGradient id="2bxg7imlkg" x1="1" x2="0" xlink:href="#vxf4mo1aqb"/>
    </defs>
    <path transform="translate(2)" style="opacity:.375;fill:none" d="M0 0h304v177H0z"/>
    <g transform="translate(1.989 -.019)">
        <path data-name="Path 9" d="M7.3 0h224.4a7.274 7.274 0 0 1 7.3 7.245v149.51a7.274 7.274 0 0 1-7.3 7.245H7.3a7.274 7.274 0 0 1-7.3-7.245V7.245A7.274 7.274 0 0 1 7.3 0z" transform="translate(34.011 1.019)" style="fill:url(#f6ntznts4c)"/>
        <path data-name="Path 8" d="M4.247-2.5h224.315a6.732 6.732 0 0 1 6.747 6.717v149.97a6.732 6.732 0 0 1-6.747 6.717H4.247a6.732 6.732 0 0 1-6.747-6.717V4.217A6.732 6.732 0 0 1 4.247-2.5zm-5.641 6.717v149.97a5.628 5.628 0 0 0 5.641 5.613h224.315a5.628 5.628 0 0 0 5.641-5.616V4.217a5.628 5.628 0 0 0-5.641-5.617H4.247a5.628 5.628 0 0 0-5.641 5.617z" transform="translate(37.106 4.114)" style="fill:#191919"/>
        <path data-name="Path 7" d="M0 7.245A7.274 7.274 0 0 1 7.3 0h224.4a7.274 7.274 0 0 1 7.3 7.245v149.51a7.274 7.274 0 0 1-7.3 7.245H7.3a7.274 7.274 0 0 1-7.3-7.245zm1.106 0v149.51A6.171 6.171 0 0 0 7.3 162.9h224.4a6.171 6.171 0 0 0 6.2-6.147V7.245a6.172 6.172 0 0 0-6.2-6.145H7.3a6.171 6.171 0 0 0-6.194 6.145z" transform="translate(34.011 1.019)" style="fill:#707070"/>
        <rect data-name="Rectangle 2036" width="236.794" height="163.019" rx="8" transform="translate(35 2)" style="fill:#15141a"/>
    </g>
    <path data-name="Path 3" d="m437.128 917.841-12 3.6H723.79l-10.886-3.6z" transform="translate(-422.125 -746.439)" style="fill:url(#oo8o74cycd)"/>
    <path data-name="Union 2" d="M148.252 6.064c-4.295.006-130 .169-136.232 0C5.681 5.891 0 1.653 0 1.653L2.485 0h112.13l33.637 1.647L181.889 0h112.13l2.481 1.653s-5.681 4.238-12.02 4.411c-2.113.057-17.968.076-38.166.076-39.359 0-95.224-.072-98.062-.076z" transform="translate(6.304 166.205)" style="stroke:#0c0c0c;stroke-width:.2px;opacity:.36;fill:none"/>
    <g data-name="Group 5">
        <g data-name="Group 1">
            <path data-name="Path 2" d="M643 483.712s6.028 4.238 12.754 4.41 144.666 0 144.666 0v-4.41l-35.809-1.653H645.637z" transform="translate(-636.696 -315.854)" style="fill:url(#srhmt78p5e)"/>
            <path data-name="Path 4" d="M.476 0h127.175v2.858H0V.476A.476.476 0 0 1 .476 0z" style="fill:url(#2axtrvz5ga)" transform="translate(6.304 165)"/>
            <path data-name="Path 1" d="M0 0h29.769v2.858H0z" transform="translate(133.955 165)" style="fill:url(#vxf4mo1aqb)"/>
        </g>
        <g data-name="Group 2">
            <path data-name="Path 2" d="M800.42 483.712s-6.028 4.238-12.754 4.41-144.666 0-144.666 0v-4.41l35.809-1.653h118.974z" transform="translate(-497.612 -315.854)" style="fill:url(#srhmt78p5e)"/>
            <path data-name="Path 10" d="M0 0h127.174a.476.476 0 0 1 .476.476v2.382H0z" transform="translate(175.157 165)" style="fill:url(#hu74qplcyf)"/>
            <path data-name="Path 1" d="M29.769 0H0v2.858h29.769z" transform="translate(145.388 165)" style="fill:url(#2bxg7imlkg)"/>
        </g>
    </g>
    <g data-name="Union 1" style="opacity:.08;fill:none">
        <path d="M176.31 2.88h-55.925V0h175.86a.465.465 0 0 1 .449.48v2.4zM0 2.88V.48A.465.465 0 0 1 .449 0h119.936v2.88z" style="stroke:none" transform="translate(6.306 165.253)"/>
        <path d="M296.594 2.78V.48c0-.21-.156-.38-.349-.38h-175.76v2.68h176.11m-176.31 0V.1H.449C.257.1.1.27.1.48v2.3h120.185m176.41.1h-176.31V0h175.86c.248 0 .45.215.45.48v2.4zm-176.31 0H0V.48C0 .215.201 0 .45 0h119.935v2.88z" style="fill:#fff;stroke:none" transform="translate(6.306 165.253)"/>
    </g>
</svg>
